<?xml version="1.0" encoding="UTF-8"?>
<svg xmlns="http://www.w3.org/2000/svg" xmlns:xlink="http://www.w3.org/1999/xlink" width="60px" height="60px" viewBox="0 0 60 60" version="1.1">
<g id="surface1">
<path style=" stroke:none;fill-rule:nonzero;fill:rgb(81.960784%,76.862745%,91.372549%);fill-opacity:1;" d="M 47.5 8.75 L 12.5 8.75 C 11.125 8.75 10 9.875 10 11.25 L 10 18.75 C 10 20.125 11.125 21.25 12.5 21.25 L 47.5 21.25 C 48.875 21.25 50 20.125 50 18.75 L 50 11.25 C 50 9.875 48.875 8.75 47.5 8.75 Z M 47.5 8.75 "/>
<path style=" stroke:none;fill-rule:nonzero;fill:rgb(81.960784%,76.862745%,91.372549%);fill-opacity:1;" d="M 47.5 23.75 L 12.5 23.75 C 11.125 23.75 10 24.875 10 26.25 L 10 33.75 C 10 35.125 11.125 36.25 12.5 36.25 L 47.5 36.25 C 48.875 36.25 50 35.125 50 33.75 L 50 26.25 C 50 24.875 48.875 23.75 47.5 23.75 Z M 47.5 23.75 "/>
<path style=" stroke:none;fill-rule:nonzero;fill:rgb(81.960784%,76.862745%,91.372549%);fill-opacity:1;" d="M 47.5 38.75 L 12.5 38.75 C 11.125 38.75 10 39.875 10 41.25 L 10 48.75 C 10 50.125 11.125 51.25 12.5 51.25 L 47.5 51.25 C 48.875 51.25 50 50.125 50 48.75 L 50 41.25 C 50 39.875 48.875 38.75 47.5 38.75 Z M 47.5 38.75 "/>
<path style=" stroke:none;fill-rule:nonzero;fill:rgb(95.686275%,26.27451%,21.176471%);fill-opacity:1;" d="M 60 47.5 C 60 54.402344 54.402344 60 47.5 60 C 40.597656 60 35 54.402344 35 47.5 C 35 40.597656 40.597656 35 47.5 35 C 54.402344 35 60 40.597656 60 47.5 Z M 60 47.5 "/>
<path style=" stroke:none;fill-rule:nonzero;fill:rgb(100%,100%,100%);fill-opacity:1;" d="M 54.136719 51.476562 L 51.488281 54.128906 L 40.882812 43.523438 L 43.53125 40.871094 Z M 54.136719 51.476562 "/>
<path style=" stroke:none;fill-rule:nonzero;fill:rgb(100%,100%,100%);fill-opacity:1;" d="M 43.523438 54.136719 L 40.871094 51.488281 L 51.476562 40.882812 L 54.128906 43.53125 Z M 43.523438 54.136719 "/>
</g>
</svg>
