<?xml version="1.0" encoding="UTF-8" standalone="no"?> <svg width="64" height="64" viewBox="0 0 64 64" fill="none" xmlns="http://www.w3.org/2000/svg">
<path d="M61 27H3V61H61V27Z" fill="#C4F236"/>
<path d="M25 51C20.7565 51 16.6869 49.3143 13.6863 46.3137C10.6857 43.3131 9 39.2435 9 35V27H3V61H61V51H25Z" fill="#A1D51C"/>
<path d="M50 27V46H3V54H50V61H56V27H50Z" fill="#AAE1F9"/>
<path d="M15 34H3V46H15V34Z" fill="#F9E109"/>
<path d="M36 54H29V61H36V54Z" fill="#F9E109"/>
<path d="M50 40H44V46H50V40Z" fill="#F9E109"/>
<path d="M25 51C22.8278 51.0009 20.6784 50.5578 18.6836 49.698C16.6889 48.8382 14.8909 47.5798 13.4 46H3V54H50V61H56V51H25Z" fill="#57B7EB"/>
<path d="M9 35V34H3V46H13.4C10.5736 43.0354 8.99784 39.096 9 35V35Z" fill="#FCBC04"/>
<path d="M32 3C27.7565 3 23.6869 4.68571 20.6863 7.68629C17.6857 10.6869 16 14.7565 16 19C16 32 32 49 32 49C32 49 48 32 48 19C48 14.7565 46.3143 10.6869 43.3137 7.68629C40.3131 4.68571 36.2435 3 32 3V3ZM32 23C30.8133 23 29.6533 22.6481 28.6666 21.9888C27.6799 21.3295 26.9108 20.3925 26.4567 19.2961C26.0026 18.1997 25.8838 16.9933 26.1153 15.8295C26.3468 14.6656 26.9182 13.5965 27.7574 12.7574C28.5965 11.9182 29.6656 11.3468 30.8295 11.1153C31.9933 10.8838 33.1997 11.0026 34.2961 11.4567C35.3925 11.9108 36.3295 12.6799 36.9888 13.6666C37.6481 14.6533 38 15.8133 38 17C38 18.5913 37.3679 20.1174 36.2426 21.2426C35.1174 22.3679 33.5913 23 32 23Z" fill="#F9E109"/>
<path d="M32 49C32 49 43.311 36.979 46.911 25.424C46.5304 20.5739 44.8225 15.9221 41.9745 11.9779C39.1265 8.03362 35.2481 4.94909 30.764 3.06201C26.7482 3.37106 22.9969 5.18411 20.2599 8.13884C17.5228 11.0936 16.0015 14.9723 16 19C16 32 32 49 32 49ZM32 11C33.1867 11 34.3467 11.3519 35.3334 12.0112C36.3201 12.6705 37.0892 13.6076 37.5433 14.7039C37.9974 15.8003 38.1162 17.0067 37.8847 18.1706C37.6532 19.3344 37.0818 20.4035 36.2426 21.2427C35.4035 22.0818 34.3344 22.6532 33.1705 22.8847C32.0067 23.1162 30.8003 22.9974 29.7039 22.5433C28.6075 22.0892 27.6705 21.3201 27.0112 20.3334C26.3519 19.3467 26 18.1867 26 17C26 15.4087 26.6321 13.8826 27.7574 12.7574C28.8826 11.6322 30.4087 11 32 11V11Z" fill="#FCBC04"/>
<path d="M38 36C32.6412 35.999 27.467 34.0421 23.4487 30.4966C19.4304 26.9512 16.8444 22.061 16.176 16.744C16.0646 17.491 16.0058 18.2448 16 19C16 32 32 49 32 49C35.7712 44.8578 39.1522 40.3765 42.1 35.613C40.7483 35.8691 39.3757 35.9986 38 36Z" fill="#E59730"/>
<path d="M61 26H50.372C50.1068 26 49.8524 26.1054 49.6649 26.2929C49.4774 26.4804 49.372 26.7348 49.372 27C49.372 27.2652 49.4774 27.5196 49.6649 27.7071C49.8524 27.8947 50.1068 28 50.372 28H55V60H51V54C51 53.7348 50.8946 53.4804 50.7071 53.2929C50.5196 53.1054 50.2652 53 50 53H4V47H28.905C30.216 48.555 31.123 49.527 31.272 49.686C31.3655 49.7853 31.4783 49.8644 31.6035 49.9185C31.7287 49.9725 31.8636 50.0004 32 50.0004C32.1364 50.0004 32.2713 49.9725 32.3965 49.9185C32.5217 49.8644 32.6345 49.7853 32.728 49.686C33.393 48.979 49 32.244 49 19C49.0056 14.7055 47.3804 10.5691 44.453 7.42702C44.3635 7.33083 44.2559 7.2532 44.1364 7.19858C44.0169 7.14396 43.8879 7.11341 43.7566 7.10867C43.6253 7.10393 43.4943 7.12511 43.3712 7.17098C43.2481 7.21685 43.1352 7.28652 43.039 7.37602C42.9428 7.46552 42.8652 7.57308 42.8106 7.69258C42.7559 7.81207 42.7254 7.94115 42.7206 8.07246C42.7111 8.33763 42.8073 8.59575 42.988 8.79002C45.5711 11.5618 47.0051 15.2112 47 19C47 29.886 35.1 44.018 32 47.51C28.9 44.018 17 29.886 17 19C16.9996 16.3072 17.7242 13.664 19.0976 11.3477C20.4709 9.03145 22.4425 7.12762 24.8054 5.83603C27.1682 4.54445 29.8352 3.91275 32.5263 4.00723C35.2175 4.10172 37.8336 4.9189 40.1 6.37302C40.2105 6.444 40.3339 6.49252 40.4632 6.5158C40.5924 6.53909 40.725 6.53669 40.8533 6.50874C40.9817 6.48079 41.1032 6.42784 41.2111 6.3529C41.319 6.27797 41.411 6.18253 41.482 6.07202C41.553 5.96151 41.6015 5.83811 41.6248 5.70885C41.6481 5.57959 41.6457 5.44701 41.6177 5.31868C41.5898 5.19035 41.5368 5.06878 41.4619 4.96091C41.387 4.85305 41.2915 4.761 41.181 4.69002C38.6124 3.04179 35.6474 2.11543 32.5974 2.00818C29.5473 1.90094 26.5246 2.61676 23.8466 4.08052C21.1686 5.54427 18.934 7.70197 17.3774 10.3271C15.8208 12.9523 14.9996 15.9481 15 19C15 28.145 22.44 38.952 27.265 45H4V35H14V42C14 42.2652 14.1054 42.5196 14.2929 42.7071C14.4804 42.8947 14.7348 43 15 43C15.2652 43 15.5196 42.8947 15.7071 42.7071C15.8946 42.5196 16 42.2652 16 42V34C16 33.7348 15.8946 33.4804 15.7071 33.2929C15.5196 33.1054 15.2652 33 15 33H4V28H13.628C13.8932 28 14.1476 27.8947 14.3351 27.7071C14.5226 27.5196 14.628 27.2652 14.628 27C14.628 26.7348 14.5226 26.4804 14.3351 26.2929C14.1476 26.1054 13.8932 26 13.628 26H3C2.73478 26 2.48043 26.1054 2.29289 26.2929C2.10536 26.4804 2 26.7348 2 27V61C2 61.2652 2.10536 61.5196 2.29289 61.7071C2.48043 61.8947 2.73478 62 3 62H16C16.2652 62 16.5196 61.8947 16.7071 61.7071C16.8946 61.5196 17 61.2652 17 61C17 60.7348 16.8946 60.4804 16.7071 60.2929C16.5196 60.1054 16.2652 60 16 60H4V55H28V60H20C19.7348 60 19.4804 60.1054 19.2929 60.2929C19.1054 60.4804 19 60.7348 19 61C19 61.2652 19.1054 61.5196 19.2929 61.7071C19.4804 61.8947 19.7348 62 20 62H61C61.2652 62 61.5196 61.8947 61.7071 61.7071C61.8946 61.5196 62 61.2652 62 61V27C62 26.7348 61.8946 26.4804 61.7071 26.2929C61.5196 26.1054 61.2652 26 61 26ZM49 60H37V55H49V60ZM30 60V55H35V60H30ZM60 60H57V28H60V60Z" fill="#39519D"/>
<path d="M49 39H44C43.7348 39 43.4804 39.1054 43.2929 39.2929C43.1054 39.4804 43 39.7348 43 40V45H39.616C39.3508 45 39.0964 45.1054 38.9089 45.2929C38.7214 45.4804 38.616 45.7348 38.616 46C38.616 46.2652 38.7214 46.5196 38.9089 46.7071C39.0964 46.8946 39.3508 47 39.616 47H50C50.2652 47 50.5196 46.8946 50.7071 46.7071C50.8946 46.5196 51 46.2652 51 46V31C51 30.7348 50.8946 30.4804 50.7071 30.2929C50.5196 30.1054 50.2652 30 50 30C49.7348 30 49.4804 30.1054 49.2929 30.2929C49.1054 30.4804 49 30.7348 49 31V39ZM49 45H45V41H49V45Z" fill="#39519D"/>
<path d="M32 22C31.3315 22.0015 30.6696 21.8678 30.054 21.607C29.8101 21.5059 29.5362 21.5053 29.2919 21.6053C29.0476 21.7054 28.8527 21.8981 28.7499 22.1412C28.6471 22.3844 28.6446 22.6583 28.7429 22.9033C28.8413 23.1483 29.0326 23.3445 29.275 23.449C30.782 24.0847 32.4642 24.1721 34.029 23.6959C35.5937 23.2197 36.9421 22.2101 37.8395 20.8426C38.7369 19.4752 39.1266 17.8364 38.9407 16.2114C38.7549 14.5864 38.0054 13.0779 36.8225 11.9483C35.6396 10.8187 34.0981 10.1395 32.4663 10.0289C30.8344 9.91817 29.2154 10.383 27.8907 11.3425C26.5661 12.302 25.6197 13.6954 25.2162 15.2805C24.8127 16.8655 24.9775 18.5419 25.682 20.018C25.7333 20.1445 25.81 20.2592 25.9073 20.3549C26.0046 20.4507 26.1205 20.5255 26.2478 20.5748C26.3751 20.624 26.5112 20.6467 26.6476 20.6414C26.784 20.6361 26.9179 20.6029 27.041 20.5439C27.1641 20.4848 27.2738 20.4012 27.3634 20.2982C27.4529 20.1952 27.5205 20.0749 27.5618 19.9448C27.6031 19.8147 27.6173 19.6775 27.6036 19.5416C27.5899 19.4058 27.5485 19.2742 27.482 19.155C27.1612 18.4821 26.9965 17.7454 27 17C27 16.0111 27.2932 15.0444 27.8427 14.2221C28.3921 13.3999 29.173 12.759 30.0866 12.3806C31.0002 12.0022 32.0055 11.9031 32.9755 12.0961C33.9454 12.289 34.8363 12.7652 35.5355 13.4645C36.2348 14.1637 36.711 15.0546 36.9039 16.0245C37.0969 16.9944 36.9978 17.9998 36.6194 18.9134C36.241 19.827 35.6001 20.6079 34.7779 21.1573C33.9556 21.7068 32.9889 22 32 22Z" fill="#39519D"/>
</svg>
