<?xml version="1.0" encoding="UTF-8"?>
<svg xmlns="http://www.w3.org/2000/svg" xmlns:xlink="http://www.w3.org/1999/xlink" width="50px" height="50px" viewBox="0 0 50 50" version="1.1">
<g id="surface1">
<path style=" stroke:none;fill-rule:nonzero;fill:rgb(75.686275%,57.647059%,86.27451%);fill-opacity:1;" d="M 39.054688 1.042969 L 1.957031 1.042969 C 1.417969 1.042969 0.976562 1.480469 0.976562 2.019531 L 0.976562 39.121094 C 0.976562 39.660156 1.417969 40.097656 1.957031 40.097656 L 39.054688 40.097656 C 39.597656 40.097656 40.035156 39.660156 40.035156 39.121094 L 40.035156 2.019531 C 40.035156 1.480469 39.597656 1.042969 39.054688 1.042969 Z M 39.054688 1.042969 "/>
<path style=" stroke:none;fill-rule:nonzero;fill:rgb(100%,100%,100%);fill-opacity:1;" d="M 10.515625 20.449219 L 10.515625 33.347656 C 10.515625 33.945312 11 34.425781 11.59375 34.425781 L 29.421875 34.425781 C 30.015625 34.425781 30.5 33.945312 30.5 33.347656 L 30.5 20.449219 L 20.507812 12.015625 Z M 10.515625 20.449219 "/>
<path style=" stroke:none;fill-rule:nonzero;fill:rgb(100%,48.235294%,47.45098%);fill-opacity:1;" d="M 35.324219 18.871094 L 30.5 14.800781 L 23.289062 8.71875 L 21.203125 6.957031 C 20.800781 6.621094 20.214844 6.621094 19.8125 6.957031 L 17.726562 8.71875 L 10.515625 14.800781 L 5.691406 18.871094 C 5.238281 19.253906 5.179688 19.9375 5.5625 20.390625 L 6.953125 22.039062 C 7.339844 22.496094 8.019531 22.554688 8.472656 22.167969 L 10.515625 20.449219 L 20.507812 12.019531 L 30.5 20.449219 L 32.539062 22.167969 C 32.996094 22.554688 33.675781 22.496094 34.058594 22.039062 L 35.453125 20.390625 C 35.835938 19.9375 35.777344 19.253906 35.324219 18.871094 Z M 35.324219 18.871094 "/>
<path style=" stroke:none;fill-rule:nonzero;fill:rgb(79.607843%,89.803922%,34.509804%);fill-opacity:1;" d="M 22.054688 28.523438 L 18.960938 28.523438 C 18.433594 28.523438 18.007812 28.949219 18.007812 29.476562 L 18.007812 34.429688 L 23.007812 34.429688 L 23.007812 29.476562 C 23.007812 28.949219 22.582031 28.523438 22.054688 28.523438 Z M 22.054688 28.523438 "/>
<path style=" stroke:none;fill-rule:nonzero;fill:rgb(87.45098%,92.941176%,100%);fill-opacity:1;" d="M 22.664062 20.894531 C 22.664062 22.085938 21.699219 23.050781 20.507812 23.050781 C 19.316406 23.050781 18.351562 22.085938 18.351562 20.894531 C 18.351562 19.703125 19.316406 18.734375 20.507812 18.734375 C 21.699219 18.734375 22.664062 19.703125 22.664062 20.894531 Z M 22.664062 20.894531 "/>
<path style=" stroke:none;fill-rule:nonzero;fill:rgb(0%,0%,0%);fill-opacity:1;" d="M 31.480469 33.355469 L 31.480469 22.558594 L 31.914062 22.921875 C 32.332031 23.277344 32.867188 23.445312 33.414062 23.398438 C 33.960938 23.351562 34.457031 23.09375 34.8125 22.675781 L 36.203125 21.027344 C 36.933594 20.160156 36.824219 18.859375 35.957031 18.125 L 21.835938 6.210938 C 21.066406 5.5625 19.949219 5.5625 19.179688 6.210938 L 5.058594 18.128906 C 4.191406 18.859375 4.078125 20.160156 4.8125 21.027344 L 6.203125 22.675781 C 6.554688 23.097656 7.054688 23.351562 7.601562 23.398438 C 7.660156 23.40625 7.71875 23.40625 7.777344 23.40625 C 8.261719 23.40625 8.726562 23.238281 9.101562 22.921875 L 9.535156 22.558594 L 9.535156 33.355469 C 9.535156 34.492188 10.457031 35.414062 11.589844 35.414062 L 29.421875 35.414062 C 30.558594 35.414062 31.480469 34.492188 31.480469 33.355469 Z M 7.839844 21.425781 C 7.820312 21.445312 7.792969 21.453125 7.765625 21.449219 C 7.738281 21.449219 7.714844 21.433594 7.699219 21.414062 L 6.308594 19.765625 C 6.269531 19.722656 6.277344 19.660156 6.320312 19.621094 L 20.441406 7.707031 C 20.460938 7.691406 20.484375 7.683594 20.507812 7.683594 C 20.53125 7.683594 20.554688 7.691406 20.574219 7.707031 L 34.695312 19.621094 C 34.738281 19.660156 34.742188 19.722656 34.707031 19.765625 L 33.316406 21.414062 C 33.296875 21.433594 33.273438 21.445312 33.246094 21.449219 C 33.21875 21.453125 33.195312 21.445312 33.175781 21.425781 L 21.136719 11.269531 C 20.773438 10.964844 20.242188 10.964844 19.875 11.269531 Z M 22.03125 33.457031 L 18.984375 33.457031 L 18.984375 29.507812 L 22.03125 29.507812 Z M 29.421875 33.457031 L 23.988281 33.457031 L 23.988281 29.484375 C 23.988281 28.417969 23.121094 27.550781 22.054688 27.550781 L 18.960938 27.550781 C 17.894531 27.550781 17.027344 28.417969 17.027344 29.484375 L 17.027344 33.457031 L 11.589844 33.457031 C 11.535156 33.457031 11.492188 33.410156 11.492188 33.355469 L 11.492188 20.90625 L 20.507812 13.300781 L 29.523438 20.90625 L 29.523438 33.355469 C 29.523438 33.410156 29.476562 33.457031 29.421875 33.457031 Z M 29.421875 33.457031 "/>
<path style=" stroke:none;fill-rule:nonzero;fill:rgb(0%,0%,0%);fill-opacity:1;" d="M 20.507812 17.761719 C 18.777344 17.761719 17.371094 19.167969 17.371094 20.898438 C 17.371094 22.625 18.777344 24.035156 20.507812 24.035156 C 22.238281 24.035156 23.644531 22.625 23.644531 20.898438 C 23.644531 19.167969 22.238281 17.761719 20.507812 17.761719 Z M 20.507812 22.078125 C 19.855469 22.078125 19.328125 21.546875 19.328125 20.898438 C 19.328125 20.246094 19.855469 19.71875 20.507812 19.71875 C 21.15625 19.71875 21.6875 20.246094 21.6875 20.898438 C 21.6875 21.546875 21.15625 22.078125 20.507812 22.078125 Z M 20.507812 22.078125 "/>
<path style=" stroke:none;fill-rule:nonzero;fill:rgb(0%,0%,0%);fill-opacity:1;" d="M 1.957031 41.078125 L 24.761719 41.078125 C 25.300781 41.078125 25.742188 40.640625 25.742188 40.097656 C 25.742188 39.558594 25.300781 39.121094 24.761719 39.121094 L 1.957031 39.121094 L 1.957031 2.019531 L 39.058594 2.019531 L 39.054688 39.121094 L 33.644531 39.121094 C 33.105469 39.121094 32.667969 39.558594 32.667969 40.097656 C 32.667969 40.640625 33.105469 41.078125 33.644531 41.078125 L 39.054688 41.078125 C 40.136719 41.078125 41.015625 40.199219 41.015625 39.121094 L 41.015625 2.019531 C 41.015625 0.941406 40.136719 0.0625 39.054688 0.0625 L 1.957031 0.0625 C 0.878906 0.0625 0 0.941406 0 2.019531 L 0 39.121094 C 0 40.199219 0.878906 41.078125 1.957031 41.078125 Z M 1.957031 41.078125 "/>
<path style=" stroke:none;fill-rule:nonzero;fill:rgb(0%,0%,0%);fill-opacity:1;" d="M 41.128906 45.804688 L 37.515625 43.472656 C 37.058594 43.179688 36.453125 43.3125 36.160156 43.765625 C 35.867188 44.21875 36 44.824219 36.453125 45.117188 L 37.257812 45.636719 L 4.320312 45.636719 L 5.121094 45.117188 C 5.578125 44.824219 5.707031 44.21875 5.414062 43.765625 C 5.121094 43.3125 4.515625 43.179688 4.0625 43.472656 L 0.449219 45.804688 C 0.167969 45.984375 0 46.296875 0 46.628906 C 0 46.960938 0.167969 47.269531 0.449219 47.449219 L 4.0625 49.78125 C 4.226562 49.886719 4.410156 49.9375 4.589844 49.9375 C 4.914062 49.9375 5.226562 49.78125 5.414062 49.492188 C 5.707031 49.039062 5.578125 48.429688 5.121094 48.136719 L 4.277344 47.59375 L 37.296875 47.59375 L 36.453125 48.136719 C 36 48.429688 35.867188 49.039062 36.160156 49.492188 C 36.347656 49.78125 36.664062 49.9375 36.984375 49.9375 C 37.167969 49.9375 37.351562 49.886719 37.515625 49.78125 L 41.128906 47.449219 C 41.40625 47.269531 41.574219 46.960938 41.574219 46.628906 C 41.574219 46.296875 41.40625 45.984375 41.128906 45.804688 Z M 41.128906 45.804688 "/>
<path style=" stroke:none;fill-rule:nonzero;fill:rgb(0%,0%,0%);fill-opacity:1;" d="M 49.550781 36.222656 C 49.097656 35.929688 48.492188 36.058594 48.199219 36.511719 L 47.679688 37.316406 L 47.679688 4.378906 L 48.199219 5.183594 C 48.492188 5.636719 49.097656 5.769531 49.550781 5.476562 C 50.007812 5.183594 50.136719 4.574219 49.84375 4.121094 L 47.511719 0.507812 C 47.332031 0.230469 47.019531 0.0625 46.6875 0.0625 C 46.355469 0.0625 46.046875 0.230469 45.867188 0.507812 L 43.535156 4.121094 C 43.242188 4.574219 43.371094 5.183594 43.828125 5.476562 C 43.992188 5.582031 44.175781 5.632812 44.355469 5.632812 C 44.675781 5.632812 44.992188 5.472656 45.179688 5.183594 L 45.722656 4.339844 L 45.722656 37.355469 L 45.179688 36.515625 C 44.886719 36.058594 44.28125 35.929688 43.828125 36.222656 C 43.371094 36.515625 43.242188 37.121094 43.535156 37.574219 L 45.867188 41.1875 C 46.046875 41.46875 46.355469 41.636719 46.6875 41.636719 C 47.023438 41.636719 47.332031 41.46875 47.511719 41.1875 L 49.84375 37.574219 C 50.136719 37.121094 50.007812 36.515625 49.550781 36.222656 Z M 49.550781 36.222656 "/>
<path style=" stroke:none;fill-rule:nonzero;fill:rgb(0%,0%,0%);fill-opacity:1;" d="M 30.179688 40.097656 C 30.179688 40.640625 29.742188 41.078125 29.203125 41.078125 C 28.660156 41.078125 28.222656 40.640625 28.222656 40.097656 C 28.222656 39.558594 28.660156 39.121094 29.203125 39.121094 C 29.742188 39.121094 30.179688 39.558594 30.179688 40.097656 Z M 30.179688 40.097656 "/>
</g>
</svg>
