<?xml version="1.0" encoding="UTF-8"?>
<svg xmlns="http://www.w3.org/2000/svg" xmlns:xlink="http://www.w3.org/1999/xlink" width="50px" height="50px" viewBox="0 0 50 50" version="1.1">
<g id="surface1">
<path style=" stroke:none;fill-rule:nonzero;fill:rgb(98.431373%,80%,42.352941%);fill-opacity:1;" d="M 6.25 36.71875 L 43.75 36.71875 L 43.75 43.75 L 6.25 43.75 Z M 6.25 36.71875 "/>
<path style=" stroke:none;fill-rule:nonzero;fill:rgb(98.431373%,68.235294%,27.843137%);fill-opacity:1;" d="M 3.125 36.71875 L 3.125 28.511719 C 3.128906 26.140625 5.046875 24.222656 7.417969 24.21875 L 42.582031 24.21875 C 44.953125 24.222656 46.871094 26.140625 46.875 28.511719 L 46.875 36.71875 Z M 3.125 36.71875 "/>
<path style=" stroke:none;fill-rule:nonzero;fill:rgb(88.235294%,53.333333%,20.784314%);fill-opacity:1;" d="M 3.125 43.75 L 3.125 45.75 C 3.125 46.371094 3.628906 46.875 4.25 46.875 L 45.75 46.875 C 46.371094 46.875 46.875 46.371094 46.875 45.75 L 46.875 43.75 "/>
<path style=" stroke:none;fill-rule:nonzero;fill:rgb(99.607843%,79.215686%,37.254902%);fill-opacity:1;" d="M 1.792969 32.8125 L 5.238281 32.8125 C 5.796875 32.8125 6.25 33.265625 6.25 33.824219 L 6.25 43.75 L 0.78125 43.75 L 0.78125 33.824219 C 0.78125 33.265625 1.234375 32.8125 1.792969 32.8125 Z M 1.792969 32.8125 "/>
<path style=" stroke:none;fill-rule:nonzero;fill:rgb(99.607843%,79.215686%,37.254902%);fill-opacity:1;" d="M 44.761719 32.8125 L 48.210938 32.8125 C 48.765625 32.8125 49.21875 33.265625 49.21875 33.824219 L 49.21875 43.75 L 43.75 43.75 L 43.75 33.824219 C 43.75 33.265625 44.203125 32.8125 44.761719 32.8125 Z M 44.761719 32.8125 "/>
<path style=" stroke:none;fill-rule:nonzero;fill:rgb(28.627451%,66.27451%,87.058824%);fill-opacity:1;" d="M 16.40625 11.457031 L 7.03125 11.457031 L 9.113281 3.125 L 14.324219 3.125 Z M 16.40625 11.457031 "/>
<path style=" stroke:none;fill-rule:nonzero;fill:rgb(66.666667%,68.627451%,71.372549%);fill-opacity:1;" d="M 20.3125 3.90625 L 46.09375 3.90625 L 46.09375 20.3125 L 20.3125 20.3125 Z M 20.3125 3.90625 "/>
<path style=" stroke:none;fill-rule:nonzero;fill:rgb(83.921569%,84.313725%,84.705882%);fill-opacity:1;" d="M 22.65625 6.25 L 43.75 6.25 L 43.75 17.96875 L 22.65625 17.96875 Z M 22.65625 6.25 "/>
<path style=" stroke:none;fill-rule:nonzero;fill:rgb(0%,0%,0%);fill-opacity:1;" d="M 48.210938 32.03125 L 46.875 32.03125 L 46.875 28.511719 C 46.894531 25.734375 44.664062 23.464844 41.886719 23.4375 L 12.5 23.4375 L 12.5 12.238281 L 16.40625 12.238281 C 16.648438 12.238281 16.875 12.128906 17.023438 11.9375 C 17.171875 11.75 17.222656 11.503906 17.164062 11.269531 L 15.078125 2.933594 C 14.992188 2.589844 14.679688 2.34375 14.324219 2.34375 L 9.113281 2.34375 C 8.757812 2.34375 8.445312 2.585938 8.355469 2.933594 L 6.273438 11.269531 C 6.214844 11.503906 6.265625 11.75 6.414062 11.9375 C 6.5625 12.128906 6.789062 12.238281 7.03125 12.238281 L 10.9375 12.238281 L 10.9375 23.4375 L 7.332031 23.4375 C 4.554688 23.464844 2.324219 25.734375 2.34375 28.511719 L 2.34375 32.03125 L 1.789062 32.03125 C 0.800781 32.03125 0 32.832031 0 33.820312 L 0 43.75 C 0 44.179688 0.351562 44.53125 0.78125 44.53125 L 2.34375 44.53125 L 2.34375 45.75 C 2.34375 46.800781 3.199219 47.65625 4.25 47.65625 L 45.75 47.65625 C 46.800781 47.65625 47.65625 46.800781 47.65625 45.75 L 47.65625 44.53125 L 49.21875 44.53125 C 49.648438 44.53125 50 44.179688 50 43.75 L 50 33.820312 C 50 32.832031 49.199219 32.03125 48.210938 32.03125 Z M 8.03125 10.675781 L 9.722656 3.90625 L 13.714844 3.90625 L 15.40625 10.675781 Z M 3.878906 28.511719 C 3.867188 26.589844 5.410156 25.019531 7.332031 25 L 41.886719 25 C 43.808594 25.019531 45.351562 26.589844 45.339844 28.511719 L 45.339844 32.03125 L 44.757812 32.03125 C 43.769531 32.03125 42.96875 32.832031 42.96875 33.820312 L 42.96875 35.9375 L 7.03125 35.9375 L 7.03125 33.820312 C 7.03125 32.832031 6.230469 32.03125 5.242188 32.03125 L 3.878906 32.03125 Z M 42.96875 37.5 L 42.96875 42.96875 L 7.03125 42.96875 L 7.03125 37.5 Z M 1.5625 42.96875 L 1.5625 33.820312 C 1.5625 33.695312 1.664062 33.59375 1.789062 33.59375 L 5.242188 33.59375 C 5.367188 33.59375 5.46875 33.695312 5.46875 33.820312 L 5.46875 42.96875 Z M 46.09375 45.75 C 46.09375 45.941406 45.941406 46.09375 45.75 46.09375 L 4.25 46.09375 C 4.058594 46.09375 3.90625 45.941406 3.90625 45.75 L 3.90625 44.53125 L 46.09375 44.53125 Z M 48.4375 42.96875 L 44.53125 42.96875 L 44.53125 33.820312 C 44.53125 33.695312 44.632812 33.59375 44.757812 33.59375 L 48.210938 33.59375 C 48.335938 33.59375 48.4375 33.695312 48.4375 33.820312 Z M 48.4375 42.96875 "/>
<path style=" stroke:none;fill-rule:nonzero;fill:rgb(93.72549%,93.72549%,93.72549%);fill-opacity:1;" d="M 32.09375 6.25 L 22.65625 15.6875 L 22.65625 12.375 L 28.78125 6.25 Z M 32.09375 6.25 "/>
<path style=" stroke:none;fill-rule:nonzero;fill:rgb(96.862745%,96.862745%,96.862745%);fill-opacity:1;" d="M 37.625 6.25 L 25.90625 17.96875 L 22.65625 17.96875 L 22.65625 15.6875 L 32.09375 6.25 Z M 37.625 6.25 "/>
<path style=" stroke:none;fill-rule:nonzero;fill:rgb(93.72549%,93.72549%,93.72549%);fill-opacity:1;" d="M 43.75 8.59375 L 43.75 12.625 L 38.40625 17.96875 L 34.375 17.96875 Z M 43.75 8.59375 "/>
<path style=" stroke:none;fill-rule:nonzero;fill:rgb(0%,0%,0%);fill-opacity:1;" d="M 10.9375 26.5625 L 12.5 26.5625 L 12.5 28.125 L 10.9375 28.125 Z M 10.9375 26.5625 "/>
<path style=" stroke:none;fill-rule:nonzero;fill:rgb(0%,0%,0%);fill-opacity:1;" d="M 10.9375 31.25 L 12.5 31.25 L 12.5 32.8125 L 10.9375 32.8125 Z M 10.9375 31.25 "/>
<path style=" stroke:none;fill-rule:nonzero;fill:rgb(0%,0%,0%);fill-opacity:1;" d="M 37.5 26.5625 L 39.0625 26.5625 L 39.0625 28.125 L 37.5 28.125 Z M 37.5 26.5625 "/>
<path style=" stroke:none;fill-rule:nonzero;fill:rgb(0%,0%,0%);fill-opacity:1;" d="M 37.5 31.25 L 39.0625 31.25 L 39.0625 32.8125 L 37.5 32.8125 Z M 37.5 31.25 "/>
<path style=" stroke:none;fill-rule:nonzero;fill:rgb(0%,0%,0%);fill-opacity:1;" d="M 24.21875 26.5625 L 25.78125 26.5625 L 25.78125 28.125 L 24.21875 28.125 Z M 24.21875 26.5625 "/>
<path style=" stroke:none;fill-rule:nonzero;fill:rgb(0%,0%,0%);fill-opacity:1;" d="M 24.21875 31.25 L 25.78125 31.25 L 25.78125 32.8125 L 24.21875 32.8125 Z M 24.21875 31.25 "/>
<path style=" stroke:none;fill-rule:nonzero;fill:rgb(0%,0%,0%);fill-opacity:1;" d="M 46.09375 21.09375 L 20.3125 21.09375 C 19.882812 21.09375 19.53125 20.742188 19.53125 20.3125 L 19.53125 3.90625 C 19.53125 3.476562 19.882812 3.125 20.3125 3.125 L 46.09375 3.125 C 46.523438 3.125 46.875 3.476562 46.875 3.90625 L 46.875 20.3125 C 46.875 20.742188 46.523438 21.09375 46.09375 21.09375 Z M 21.09375 19.53125 L 45.3125 19.53125 L 45.3125 4.6875 L 21.09375 4.6875 Z M 21.09375 19.53125 "/>
<path style=" stroke:none;fill-rule:nonzero;fill:rgb(0%,0%,0%);fill-opacity:1;" d="M 43.75 18.75 L 22.65625 18.75 C 22.226562 18.75 21.875 18.398438 21.875 17.96875 L 21.875 6.25 C 21.875 5.820312 22.226562 5.46875 22.65625 5.46875 L 43.75 5.46875 C 44.179688 5.46875 44.53125 5.820312 44.53125 6.25 L 44.53125 17.96875 C 44.53125 18.398438 44.179688 18.75 43.75 18.75 Z M 23.4375 17.1875 L 42.96875 17.1875 L 42.96875 7.03125 L 23.4375 7.03125 Z M 23.4375 17.1875 "/>
</g>
</svg>
