<?xml version="1.0" encoding="UTF-8"?>
<svg xmlns="http://www.w3.org/2000/svg" xmlns:xlink="http://www.w3.org/1999/xlink" width="50px" height="50px" viewBox="0 0 50 50" version="1.1">
<g id="surface1">
<path style="fill-rule:nonzero;fill:rgb(94.901961%,64.313725%,7.45098%);fill-opacity:1;stroke-width:15;stroke-linecap:butt;stroke-linejoin:miter;stroke:rgb(94.901961%,54.901961%,5.882353%);stroke-opacity:1;stroke-miterlimit:10;" d="M 117.92 460 L 394.08 460 C 430.48 460 460 430.48 460 394.08 L 460 117.92 C 460 81.52 430.48 52 394.08 52 L 117.92 52 C 81.52 52 52 81.52 52 117.92 L 52 394.08 C 52 430.48 81.52 460 117.92 460 Z M 117.92 460 " transform="matrix(0.0976562,0,0,0.0976562,0,0)"/>
<path style=" stroke:none;fill-rule:nonzero;fill:rgb(56.862745%,30.196078%,1.176471%);fill-opacity:1;" d="M 18.4375 36.109375 L 18.4375 32.515625 L 16.28125 32.515625 L 16.28125 29.585938 L 18.4375 29.585938 L 18.4375 27.246094 L 16.28125 27.246094 L 16.28125 24.320312 L 18.4375 24.320312 L 18.4375 13.886719 L 24.882812 13.886719 C 27.789062 13.886719 29.984375 14.511719 31.476562 15.753906 C 32.96875 17 33.71875 18.636719 33.71875 20.660156 C 33.71875 22.625 33 24.210938 31.5625 25.425781 C 30.125 26.640625 28.019531 27.25 25.238281 27.25 L 23.160156 27.25 L 23.160156 29.585938 L 29.019531 29.585938 L 29.019531 32.515625 L 23.160156 32.515625 L 23.160156 36.113281 L 18.4375 36.113281 Z M 23.164062 16.832031 L 23.164062 24.320312 L 24.992188 24.320312 C 26.191406 24.320312 27.15625 23.996094 27.890625 23.355469 C 28.621094 22.714844 28.988281 21.769531 28.988281 20.523438 C 28.988281 19.3125 28.621094 18.394531 27.890625 17.769531 C 27.15625 17.144531 26.191406 16.832031 24.992188 16.832031 Z M 23.164062 16.832031 "/>
</g>
</svg>
